<svg id="visual" viewBox="0 0 1920 1080" width="1920" height="1080" xmlns="http://www.w3.org/2000/svg" xmlns:xlink="http://www.w3.org/1999/xlink" version="1.1"><rect x="0" y="0" width="1920" height="1080" fill="#001220"></rect><defs><linearGradient id="grad1_0" x1="43.8%" y1="0%" x2="100%" y2="100%"><stop offset="14.444444444444446%" stop-color="#fbae3c" stop-opacity="1"></stop><stop offset="85.55555555555554%" stop-color="#fbae3c" stop-opacity="1"></stop></linearGradient></defs><defs><linearGradient id="grad1_1" x1="43.8%" y1="0%" x2="100%" y2="100%"><stop offset="14.444444444444446%" stop-color="#fbae3c" stop-opacity="1"></stop><stop offset="85.55555555555554%" stop-color="#96446e" stop-opacity="1"></stop></linearGradient></defs><defs><linearGradient id="grad1_2" x1="43.8%" y1="0%" x2="100%" y2="100%"><stop offset="14.444444444444446%" stop-color="#001220" stop-opacity="1"></stop><stop offset="85.55555555555554%" stop-color="#96446e" stop-opacity="1"></stop></linearGradient></defs><defs><linearGradient id="grad2_0" x1="0%" y1="0%" x2="56.3%" y2="100%"><stop offset="14.444444444444446%" stop-color="#fbae3c" stop-opacity="1"></stop><stop offset="85.55555555555554%" stop-color="#fbae3c" stop-opacity="1"></stop></linearGradient></defs><defs><linearGradient id="grad2_1" x1="0%" y1="0%" x2="56.3%" y2="100%"><stop offset="14.444444444444446%" stop-color="#96446e" stop-opacity="1"></stop><stop offset="85.55555555555554%" stop-color="#fbae3c" stop-opacity="1"></stop></linearGradient></defs><defs><linearGradient id="grad2_2" x1="0%" y1="0%" x2="56.3%" y2="100%"><stop offset="14.444444444444446%" stop-color="#96446e" stop-opacity="1"></stop><stop offset="85.55555555555554%" stop-color="#001220" stop-opacity="1"></stop></linearGradient></defs><g transform="translate(1920, 0)"><path d="M0 972C-103 905.9 -206 839.8 -333.3 804.7C-460.6 769.6 -612.3 765.6 -687.3 687.3C-762.3 609 -760.8 456.4 -795.5 329.5C-830.1 202.6 -901.1 101.3 -972 0L0 0Z" fill="#3d3056"></path><path d="M0 648C-68.7 603.9 -137.3 559.8 -222.2 536.5C-307.1 513.1 -408.2 510.4 -458.2 458.2C-508.2 406 -507.2 304.3 -530.3 219.7C-553.4 135 -600.7 67.5 -648 0L0 0Z" fill="#e1685e"></path><path d="M0 324C-34.3 302 -68.7 279.9 -111.1 268.2C-153.5 256.5 -204.1 255.2 -229.1 229.1C-254.1 203 -253.6 152.1 -265.2 109.8C-276.7 67.5 -300.4 33.8 -324 0L0 0Z" fill="#fbae3c"></path></g><g transform="translate(0, 1080)"><path d="M0 -972C104.6 -887 209.1 -802.1 309.2 -746.5C409.3 -690.9 504.9 -664.8 611.6 -611.6C718.3 -558.5 836.1 -478.4 898 -372C959.9 -265.5 966 -132.8 972 0L0 0Z" fill="#3d3056"></path><path d="M0 -648C69.7 -591.4 139.4 -534.7 206.1 -497.7C272.9 -460.6 336.6 -443.2 407.8 -407.8C478.9 -372.3 557.4 -318.9 598.7 -248C639.9 -177 644 -88.5 648 0L0 0Z" fill="#e1685e"></path><path d="M0 -324C34.9 -295.7 69.7 -267.4 103.1 -248.8C136.4 -230.3 168.3 -221.6 203.9 -203.9C239.4 -186.2 278.7 -159.5 299.3 -124C320 -88.5 322 -44.3 324 0L0 0Z" fill="#fbae3c"></path></g></svg>