<svg id="visual" viewBox="0 0 1080 1920" width="1080" height="1920" xmlns="http://www.w3.org/2000/svg" xmlns:xlink="http://www.w3.org/1999/xlink" version="1.1"><rect x="0" y="0" width="1080" height="1920" fill="#001220"></rect><defs><linearGradient id="grad1_0" x1="0%" y1="0%" x2="100%" y2="100%"><stop offset="30%" stop-color="#fbae3c" stop-opacity="1"></stop><stop offset="70%" stop-color="#fbae3c" stop-opacity="1"></stop></linearGradient></defs><defs><linearGradient id="grad1_1" x1="0%" y1="0%" x2="100%" y2="100%"><stop offset="30%" stop-color="#fbae3c" stop-opacity="1"></stop><stop offset="70%" stop-color="#96446e" stop-opacity="1"></stop></linearGradient></defs><defs><linearGradient id="grad1_2" x1="0%" y1="0%" x2="100%" y2="100%"><stop offset="30%" stop-color="#001220" stop-opacity="1"></stop><stop offset="70%" stop-color="#96446e" stop-opacity="1"></stop></linearGradient></defs><defs><linearGradient id="grad2_0" x1="0%" y1="0%" x2="100%" y2="100%"><stop offset="30%" stop-color="#fbae3c" stop-opacity="1"></stop><stop offset="70%" stop-color="#fbae3c" stop-opacity="1"></stop></linearGradient></defs><defs><linearGradient id="grad2_1" x1="0%" y1="0%" x2="100%" y2="100%"><stop offset="30%" stop-color="#96446e" stop-opacity="1"></stop><stop offset="70%" stop-color="#fbae3c" stop-opacity="1"></stop></linearGradient></defs><defs><linearGradient id="grad2_2" x1="0%" y1="0%" x2="100%" y2="100%"><stop offset="30%" stop-color="#96446e" stop-opacity="1"></stop><stop offset="70%" stop-color="#001220" stop-opacity="1"></stop></linearGradient></defs><g transform="translate(1080, 0)"><path d="M0 972C-89.8 875.8 -179.7 779.7 -310.4 749.3C-441 718.9 -612.5 754.2 -687.3 687.3C-762.1 620.4 -740.1 451.1 -771.4 319.5C-802.8 187.9 -887.4 94 -972 0L0 0Z" fill="#3d3056"></path><path d="M0 648C-59.9 583.9 -119.8 519.8 -206.9 499.5C-294 479.2 -408.4 502.8 -458.2 458.2C-508.1 413.6 -493.4 300.8 -514.3 213C-535.2 125.3 -591.6 62.6 -648 0L0 0Z" fill="#e1685e"></path><path d="M0 324C-29.9 291.9 -59.9 259.9 -103.5 249.8C-147 239.6 -204.2 251.4 -229.1 229.1C-254 206.8 -246.7 150.4 -257.1 106.5C-267.6 62.6 -295.8 31.3 -324 0L0 0Z" fill="#fbae3c"></path></g><g transform="translate(0, 1920)"><path d="M0 -972C112.2 -894.1 224.5 -816.2 308.4 -744.6C392.4 -673.1 448.2 -607.7 555.1 -555.1C662 -502.4 820 -462.4 898 -372C976 -281.6 974 -140.8 972 0L0 0Z" fill="#3d3056"></path><path d="M0 -648C74.8 -596.1 149.6 -544.2 205.6 -496.4C261.6 -448.7 298.8 -405.2 370.1 -370.1C441.3 -334.9 546.7 -308.3 598.7 -248C650.7 -187.7 649.3 -93.9 648 0L0 0Z" fill="#e1685e"></path><path d="M0 -324C37.4 -298 74.8 -272.1 102.8 -248.2C130.8 -224.4 149.4 -202.6 185 -185C220.7 -167.5 273.3 -154.1 299.3 -124C325.3 -93.9 324.7 -46.9 324 0L0 0Z" fill="#fbae3c"></path></g></svg>